<svg width="16" height="13" viewBox="0 0 16 13" fill="none" xmlns="http://www.w3.org/2000/svg">
<path d="M9.69788 6.37319L9.65345 6.44138L9.7112 6.49873L11.1653 7.94278L10.5114 8.56265L9.08934 7.11601L9.03384 7.05954L8.96615 7.10062C8.75467 7.22896 8.54133 7.32457 8.32608 7.38812C8.1118 7.45138 7.88202 7.48333 7.63621 7.48333C6.97168 7.48333 6.39956 7.24997 5.9149 6.78027C5.4316 6.3119 5.19076 5.7391 5.19076 5.05556C5.19076 4.37201 5.4316 3.79921 5.9149 3.33084C6.39956 2.86114 6.97168 2.62778 7.63621 2.62778C8.30074 2.62778 8.87286 2.86114 9.35753 3.33084C9.84082 3.79921 10.0817 4.37201 10.0817 5.05556C10.0817 5.29944 10.0495 5.53072 9.98566 5.74979C9.92181 5.96884 9.826 6.17657 9.69788 6.37319ZM2.08167 9.38889V9.48889H2.18167H13.818H13.918V9.38889V1.44444V1.34444H13.818H2.18167H2.08167V1.44444V9.38889ZM6.53848 6.14665C6.84198 6.44805 7.2097 6.6 7.63621 6.6C8.06272 6.6 8.43044 6.44805 8.73395 6.14665C9.03748 5.84523 9.19076 5.47974 9.19076 5.05556C9.19076 4.63068 9.03391 4.26496 8.72411 3.96372C8.41549 3.66363 8.05143 3.51111 7.63621 3.51111C7.2097 3.51111 6.84198 3.66306 6.53848 3.96446C6.23495 4.26588 6.08167 4.63137 6.08167 5.05556C6.08167 5.47974 6.23495 5.84523 6.53848 6.14665ZM2.18167 10.7333C1.80817 10.7333 1.49105 10.6024 1.22486 10.3381C0.958687 10.0738 0.82712 9.75915 0.82712 9.38889V1.44444C0.82712 1.07418 0.958687 0.759584 1.22486 0.495262C1.49105 0.23092 1.80817 0.1 2.18167 0.1H13.818C14.1915 0.1 14.5086 0.23092 14.7748 0.495262C15.041 0.759584 15.1726 1.07418 15.1726 1.44444V9.38889C15.1726 9.75915 15.041 10.0738 14.7748 10.3381C14.5086 10.6024 14.1915 10.7333 13.818 10.7333H2.18167ZM0.0998474 12.9V11.6556H15.8998V12.9H0.0998474Z" fill="#747474" stroke="white" stroke-width="0.2"/>
</svg>
