<svg width="32" height="32" viewBox="0 0 32 32" fill="none" xmlns="http://www.w3.org/2000/svg">
<path d="M0 4C0 1.79086 1.79086 0 4 0H28C30.2091 0 32 1.79086 32 4V28C32 30.2091 30.2091 32 28 32H4C1.79086 32 0 30.2091 0 28V4Z" fill="white"/>
<path d="M26.6983 15.8753H24.0001H23.8751V16.0003C23.8751 20.3513 20.3511 23.8753 16.0001 23.8753C14.511 23.8753 13.1225 23.4549 11.94 22.7372L13.2231 21.4541C14.0523 21.8864 15.0027 22.1253 16.0001 22.1253C19.3791 22.1253 22.1251 19.3793 22.1251 16.0003V15.8753H22.0001H19.3019L23.0001 12.1771L26.6983 15.8753ZM9.87509 16.0003V16.1253H10.0001H12.6983L9.00009 19.8235L5.30187 16.1253H8.00009H8.12509V16.0003C8.12509 11.6493 11.6491 8.12531 16.0001 8.12531C17.4891 8.12531 18.8776 8.54566 20.0602 9.2634L18.7771 10.5465C17.9479 10.1142 16.9975 9.8753 16.0001 9.8753C12.6211 9.8753 9.87509 12.6213 9.87509 16.0003Z" fill="#0076F5" stroke="white" stroke-width="0.25"/>
</svg>
