<svg width="6" height="4" viewBox="0 0 6 4" fill="none" xmlns="http://www.w3.org/2000/svg">
<path d="M5.57143 3.74669e-08C5.65102 3.05089e-08 5.72904 0.0206857 5.79674 0.0597396C5.86445 0.0987935 5.91916 0.154672 5.95475 0.221115C5.99035 0.287557 6.00542 0.361938 5.99827 0.435922C5.99112 0.509907 5.96204 0.580572 5.91429 0.64L3.34286 3.84C3.30294 3.88968 3.25117 3.93 3.19166 3.95777C3.13215 3.98554 3.06653 4 3 4C2.93347 4 2.86785 3.98554 2.80834 3.95777C2.74883 3.93 2.69706 3.88968 2.65714 3.84L0.085716 0.640001C0.0379617 0.580573 0.00888031 0.509907 0.00173251 0.435923C-0.00541528 0.361938 0.00965324 0.287557 0.0452472 0.221115C0.0808412 0.154673 0.135555 0.098794 0.203259 0.0597401C0.270963 0.0206862 0.348982 4.94028e-07 0.428573 4.8707e-07L5.57143 3.74669e-08Z" fill="#747474"/>
</svg>
