<svg width="6" height="4" viewBox="0 0 6 4" fill="none" xmlns="http://www.w3.org/2000/svg">
<path d="M0.428388 4C0.348798 4 0.270779 3.97931 0.203075 3.94026C0.135371 3.90121 0.0806566 3.84533 0.0450625 3.77889C0.00946843 3.71244 -0.00559888 3.63806 0.00154882 3.56408C0.00869653 3.49009 0.0377768 3.41943 0.0855313 3.36L2.65696 0.16C2.69688 0.110322 2.74864 0.0700002 2.80815 0.0422291C2.86766 0.014458 2.93328 0 2.99982 0C3.06635 0 3.13197 0.014458 3.19148 0.0422291C3.25099 0.0700002 3.30275 0.110322 3.34267 0.16L5.9141 3.36C5.96186 3.41943 5.99094 3.49009 5.99809 3.56408C6.00523 3.63806 5.99016 3.71244 5.95457 3.77889C5.91898 3.84533 5.86426 3.90121 5.79656 3.94026C5.72885 3.97931 5.65084 4 5.57124 4L0.428388 4Z" fill="#404040"/>
</svg>
