<svg width="20" height="20" viewBox="0 0 20 20" fill="currentColor" xmlns="http://www.w3.org/2000/svg">
  <path d="M11.2658 2.14609C10.7865 2.2411 10.3391 2.45592 9.96529 2.77052C9.59148 3.08512 9.30341 3.48926 9.12797 3.94526L9.12735 3.94604C8.9506 4.40955 8.896 4.91072 8.96877 5.40142C9.04154 5.89212 9.23926 6.35587 9.54292 6.74813L7.58176 12.1915C7.10076 12.2929 6.65352 12.5152 6.28224 12.8373C5.91096 13.1595 5.62788 13.571 5.45972 14.0329C5.29002 14.4999 5.24325 15.0027 5.32391 15.493C5.40456 15.9833 5.60993 16.4446 5.92029 16.8326L5.9255 16.8385C6.28123 17.268 6.9797 17.1537 7.17426 16.6191L7.71616 15.1321L8.45152 15.3997L7.90983 16.8862C7.71355 17.4255 8.18259 17.958 8.73203 17.8543L8.73523 17.8538C9.21449 17.7588 9.66188 17.544 10.0357 17.2294C10.4095 16.9148 10.6976 16.5107 10.873 16.0547L10.8736 16.0539C11.0489 15.5954 11.1044 15.0999 11.0351 14.614C10.9657 14.1281 10.7736 13.6679 10.4771 13.2768L12.4526 7.80116C12.9269 7.69574 13.367 7.4724 13.732 7.15181C14.0971 6.83122 14.3754 6.42373 14.5413 5.96704C14.711 5.50004 14.7577 4.99724 14.6771 4.50695C14.5964 4.01665 14.3911 3.55533 14.0807 3.1673L14.0755 3.16139C13.7198 2.73192 13.0213 2.84626 12.8267 3.38079L12.2848 4.86784L11.5491 4.60038L12.0912 3.11374C12.2874 2.57447 11.8184 2.04188 11.2689 2.14558L11.2658 2.14609ZM11.1507 3.09719L10.6593 4.44642C10.6261 4.53636 10.611 4.63199 10.615 4.72778C10.6189 4.82358 10.6418 4.91763 10.6824 5.00453C10.7229 5.09142 10.7802 5.16942 10.851 5.23403C10.9219 5.29864 11.0048 5.34858 11.0951 5.38095L12.1311 5.75803C12.221 5.79117 12.3166 5.80618 12.4124 5.80219C12.5082 5.7982 12.6022 5.77529 12.6891 5.73477C12.776 5.69426 12.854 5.63695 12.9186 5.56615C12.9832 5.49535 13.0332 5.41245 13.0656 5.32225L13.5574 3.97282C13.7234 4.25949 13.8158 4.58284 13.8263 4.91394C13.8368 5.24505 13.765 5.57359 13.6175 5.87019C13.47 6.16679 13.2512 6.4222 12.9808 6.61357C12.7104 6.80495 12.3968 6.92633 12.068 6.96685C11.9865 6.97693 11.9095 7.00937 11.8453 7.06058C11.7811 7.11179 11.7324 7.17977 11.7045 7.25697L9.55576 13.214C9.52825 13.2902 9.5221 13.3725 9.53797 13.452C9.55385 13.5315 9.59115 13.6051 9.64584 13.6649C9.89796 13.9389 10.0688 14.2777 10.1391 14.6433C10.2095 15.0089 10.1766 15.3869 10.0442 15.735C9.94083 16.0039 9.78067 16.2473 9.57467 16.4487C9.36867 16.6502 9.12168 16.8048 8.85051 16.9021L9.34171 15.5535C9.37492 15.4636 9.38997 15.3679 9.38601 15.2721C9.38205 15.1763 9.35915 15.0823 9.31863 14.9954C9.27811 14.9085 9.22078 14.8305 9.14994 14.7659C9.07911 14.7013 8.99618 14.6513 8.90593 14.619L7.87052 14.2421C7.78058 14.209 7.68496 14.194 7.58918 14.1979C7.49341 14.2019 7.39937 14.2249 7.3125 14.2654C7.22562 14.3059 7.14762 14.3632 7.083 14.434C7.01838 14.5048 6.96842 14.5877 6.93599 14.6779L6.44439 16.0267C6.27729 15.7381 6.18484 15.4124 6.17539 15.0791C6.16595 14.7457 6.23982 14.4153 6.39031 14.1177C6.5408 13.8201 6.76315 13.5648 7.03723 13.3748C7.3113 13.1849 7.62844 13.0663 7.95992 13.0298C8.04264 13.0208 8.12116 12.9887 8.18654 12.9372C8.25193 12.8858 8.30155 12.817 8.32976 12.7387L10.4661 6.80756C10.4938 6.7305 10.4996 6.6473 10.483 6.56712C10.4664 6.48695 10.428 6.41293 10.3719 6.35322C10.1136 6.07922 9.93769 5.73799 9.86433 5.36863C9.79097 4.99927 9.82314 4.61671 9.95715 4.26478C10.0606 3.9958 10.2208 3.75228 10.4269 3.55082C10.6329 3.34936 10.88 3.19471 11.1513 3.0974" fill="currentColor"/>
  <path d="M3.62831 6.63184L3.66418 6.59488L3.70006 6.63184L4.20254 7.14955L4.23634 7.18437L4.20254 7.2192L1.90796 9.58333L4.20254 11.9475L4.23634 11.9823L4.20254 12.0171L3.70006 12.5348L3.66418 12.5718L3.62831 12.5348L0.797449 9.61816L0.76365 9.58333L0.797449 9.54851L3.62831 6.63184Z" fill="currentColor" stroke="currentColor" stroke-width="0.1"/>
  <path d="M16.3717 12.5348L16.3358 12.5717L16.2999 12.5348L15.7975 12.0171L15.7637 11.9823L15.7975 11.9474L18.092 9.58329L15.7975 7.21916L15.7637 7.18433L15.7975 7.14951L16.2999 6.6318L16.3358 6.59484L16.3717 6.6318L19.2026 9.54847L19.2364 9.58329L19.2026 9.61812L16.3717 12.5348Z" fill="currentColor" stroke="currentColor" stroke-width="0.1"/>
</svg>
