<svg width="24" height="24" viewBox="0 0 24 24" fill="none" xmlns="http://www.w3.org/2000/svg">
<path d="M5.75 18.1V18.25H5.9H18.1H18.25V18.1V17C18.25 16.8629 18.1695 16.7345 18.071 16.6255C17.9682 16.5116 17.8233 16.3943 17.6478 16.2771C17.296 16.0423 16.8012 15.7951 16.2177 15.57C15.0507 15.1199 13.5072 14.75 12 14.75C10.4928 14.75 8.94932 15.1199 7.78227 15.57C7.19879 15.7951 6.704 16.0423 6.35218 16.2771C6.17672 16.3943 6.03179 16.5116 5.92898 16.6255C5.83052 16.7345 5.75 16.8629 5.75 17V18.1ZM12 4.15C13.0211 4.15 14.0003 4.55562 14.7224 5.27764C15.4444 5.99965 15.85 6.97892 15.85 8C15.85 9.02108 15.4444 10.0003 14.7224 10.7224C14.0003 11.4444 13.0211 11.85 12 11.85C10.9789 11.85 9.99965 11.4444 9.27764 10.7224C8.55562 10.0003 8.15 9.02108 8.15 8C8.15 6.97892 8.55562 5.99965 9.27764 5.27764C9.99965 4.55562 10.9789 4.15 12 4.15ZM12 5.85C11.4298 5.85 10.8829 6.07652 10.4797 6.47972C10.0765 6.88292 9.85 7.42978 9.85 8C9.85 8.57022 10.0765 9.11708 10.4797 9.52028C10.8829 9.92348 11.4298 10.15 12 10.15C12.5702 10.15 13.1171 9.92348 13.5203 9.52028C13.9235 9.11708 14.15 8.57022 14.15 8C14.15 7.42978 13.9235 6.88292 13.5203 6.47972C13.1171 6.07652 12.5702 5.85 12 5.85ZM12 13.15C13.3164 13.15 15.2975 13.479 16.9456 14.138C17.7695 14.4675 18.5008 14.8757 19.0237 15.3588C19.5455 15.8408 19.85 16.3874 19.85 17V19.85H4.15V17C4.15 16.3874 4.45449 15.8408 4.97632 15.3588C5.49922 14.8757 6.2305 14.4675 7.05444 14.138C8.70255 13.479 10.6836 13.15 12 13.15Z" fill="#0076F5" stroke="white" stroke-width="0.3"/>
</svg>
